<?xml version="1.0" encoding="utf-8"?>
<!-- Generator: Adobe Illustrator 27.4.1, SVG Export Plug-In . SVG Version: 6.00 Build 0)  -->
<svg version="1.1" id="Шар_1" xmlns="http://www.w3.org/2000/svg" xmlns:xlink="http://www.w3.org/1999/xlink" x="0px" y="0px"
	 viewBox="0 0 500 500" style="enable-background:new 0 0 500 500;" xml:space="preserve">
<style type="text/css">
	.st0{display:none;}
	.st1{display:inline;fill:#12B4E0;}
	.st2{display:inline;fill:none;}
	.st3{display:inline;fill:#FFFFFF;}
	.st4{display:none;fill:#159CBC;}
	.st5{display:none;fill:#1390A5;}
	.st6{display:none;fill:#7EAF31;}
	.st7{display:none;fill:#69961B;}
	.st8{display:inline;}
	.st9{fill:#352004;}
	.st10{fill:#FF7C24;}
	.st11{fill:none;}
	.st12{fill:#FFFFFF;}
	.st13{font-family:'MontserratSubrayada-Bold';}
	.st14{font-size:41.712px;}
	.st15{font-size:18.5387px;}
	.st16{fill:#EDEFEF;}
	.st17{fill:#D3D3D3;}
	.st18{fill:#231403;}
	.st19{fill:#F2AD7E;}
	.st20{fill:#D67534;}
	.st21{fill:#5C8FCC;}
	.st22{fill:#A04C1D;}
	.st23{fill:#843B17;}
	.st24{fill:#3F2707;}
	.st25{display:inline;fill:#7EAF31;}
	.st26{display:inline;fill:#69961B;}
	.st27{display:inline;fill:#352004;}
	.st28{clip-path:url(#SVGID_00000174579792676602867930000015586548755113309618_);}
	.st29{fill:#93542A;}
	.st30{fill:#A35D2E;}
	.st31{fill:#B56D3C;}
	.st32{fill:#E8E9D9;}
	.st33{fill:#B5B3A9;}
	.st34{fill:#DB1FDB;}
	.st35{fill:#C60EC1;}
	.st36{clip-path:url(#SVGID_00000164488232428981686160000000596163879146036885_);}
	.st37{fill:#C68C17;}
	.st38{fill:#85929E;}
	.st39{fill:#A3AAB2;}
	.st40{fill:#D89D19;}
	.st41{fill:#FFC023;}
	.st42{fill:#107E9B;}
	.st43{fill:#128EAF;}
	.st44{fill:#0E95C4;}
	.st45{fill:#E26B1B;}
	.st46{fill:#69961B;}
</style>
<g id="BACKGROUND" class="st0">
	<rect id="XMLID_240_" class="st1" width="500" height="500"/>
	<rect id="XMLID_2_" class="st2" width="500" height="500"/>
	<path id="XMLID_621_" class="st3" d="M364.7,63.5h-47.9c0.9-3.7,4.2-6.3,8.1-6.3c0.5,0,0.9,0,1.4,0.1c0.5-4.1,4-7.3,8.3-7.3
		c2.8,0,5.2,1.4,6.7,3.4c1.4-1,3-1.5,4.8-1.5c3.2,0,5.9,1.8,7.3,4.3c0.9-0.3,1.9-0.5,2.9-0.5C360.9,55.6,364.5,59.1,364.7,63.5z"/>
	<path id="XMLID_618_" class="st3" d="M436.4,167.9h-44.2c0-0.1,0-0.2,0-0.3c0-4.6,3.7-8.3,8.4-8.3c2.1,0,4,0.8,5.5,2
		c1.5-1.3,3.4-2,5.5-2c1.5,0,2.9,0.4,4,1.1c1.5-1.6,3.7-2.7,6.1-2.7c4.1,0,7.4,2.9,8.2,6.7C432.5,164.4,434.9,165.8,436.4,167.9z"/>
	<path id="XMLID_610_" class="st3" d="M94.9,214.5H46c0-0.1,0-0.1,0-0.2c0-4.6,3.7-8.3,8.4-8.3c2.8,0,5.2,1.3,6.7,3.4
		c1.5-1.9,3.9-3.1,6.5-3.1c2.7,0,5.1,1.3,6.6,3.2c1.4-1.1,3.2-1.8,5.2-1.8c1.1,0,2.2,0.2,3.2,0.6c1.2-0.7,2.6-1.1,4.1-1.1
		C90.8,207.3,94.3,210.4,94.9,214.5z"/>
</g>
<g id="OBJECTS">
	<g>
		<g>
			<polygon id="XMLID_601_" class="st4" points="-121.8,456.2 -48.6,374.8 25.2,374.8 25.2,469 64.2,469 64.2,359 102.9,320.4 
				144.9,320.4 144.9,349.5 218.8,349.5 250.6,453.8 302.9,453.8 302.9,348.8 334.4,348.8 352.1,366.6 373.3,366.6 399.3,340.6 
				439.7,340.6 439.7,446.6 463.6,446.6 488.6,367.6 521.7,367.6 562.3,408.1 562.3,595 -105.9,595 			"/>
			<path id="XMLID_476_" class="st5" d="M67.2,598.9c-1.5,1.5-201.6,0-201.6,0V493.3l46.8-46.8l91.2,59.7l33.9-24.6l38,33.3h258.8
				l40.9-40.9h88.9l47.1,47.1h44.5l45.6-45.6l46.2,46.2v79.5h-783.7l1.7-2.2"/>
			<rect id="XMLID_483_" x="-68.5" y="620.3" class="st6" width="651.1" height="91"/>
			<rect id="XMLID_544_" x="-68.5" y="592.3" class="st7" width="651.1" height="28.5"/>
			<g id="XMLID_551_" class="st0">
				<g id="XMLID_550_" class="st8">
					
						<rect id="XMLID_548_" x="79.2" y="331.7" transform="matrix(0.9475 -0.3197 0.3197 0.9475 -124.5655 49.0029)" class="st9" width="15.5" height="144.4"/>
					
						<rect id="XMLID_547_" x="-0.1" y="341.9" transform="matrix(0.9475 -0.3197 0.3197 0.9475 -115.197 44.0289)" class="st10" width="153.1" height="61.9"/>
				</g>
				<g id="XMLID_602_" class="st8">
					
						<rect id="XMLID_197_" x="15.5" y="362.2" transform="matrix(0.9473 -0.3204 0.3204 0.9473 -117.3277 45.3056)" class="st11" width="127.1" height="34"/>
					<text id="XMLID_605_" transform="matrix(0.9473 -0.3204 0.3204 0.9473 39.8613 405.7283)" class="st12 st13 st14">Rent</text>
					
						<rect id="XMLID_1_" x="47.3" y="347.2" transform="matrix(0.9473 -0.3204 0.3204 0.9473 -110.2999 41.5602)" class="st11" width="47.8" height="17.5"/>
					<text id="XMLID_603_" transform="matrix(0.9473 -0.3204 0.3204 0.9473 57.4881 365.2063)" class="st12 st13 st15">For</text>
				</g>
			</g>
			<g id="XMLID_4_">
				<g id="XMLID_497_">
					<g id="XMLID_468_">
						<g id="XMLID_428_">
							
								<rect id="XMLID_461_" x="407.8" y="261.6" transform="matrix(0.2795 -0.9601 0.9601 0.2795 54.7552 599.2092)" class="st16" width="37.6" height="3.1"/>
							
								<rect id="XMLID_463_" x="429.6" y="267.7" transform="matrix(0.2795 -0.9601 0.9601 0.2795 64.5573 624.5305)" class="st16" width="37.6" height="3.1"/>
							
								<rect id="XMLID_464_" x="451.4" y="273.9" transform="matrix(0.2795 -0.9601 0.9601 0.2795 74.3511 649.8704)" class="st16" width="37.6" height="3.1"/>
						</g>
						<g id="XMLID_462_">
							
								<rect id="XMLID_467_" x="429.1" y="245.3" transform="matrix(0.2795 -0.9601 0.9601 0.2795 73.7529 592.0411)" class="st17" width="4.5" height="3.1"/>
							
								<rect id="XMLID_466_" x="450.9" y="251.6" transform="matrix(0.2795 -0.9601 0.9601 0.2795 83.3633 617.4493)" class="st17" width="4.5" height="3.1"/>
							
								<rect id="XMLID_465_" x="472.6" y="257.9" transform="matrix(0.2795 -0.9601 0.9601 0.2795 92.9686 642.844)" class="st17" width="4.5" height="3.1"/>
						</g>
					</g>
					<polygon id="XMLID_469_" class="st16" points="488.6,264.1 415.7,242.8 420.7,225.7 474.5,241.3 					"/>
					<polygon id="XMLID_473_" class="st9" points="489,262.9 416.1,241.6 421.1,224.5 474.9,240.1 					"/>
					<polygon id="XMLID_471_" class="st18" points="463,255.3 416.1,241.6 421.1,224.5 439.8,229.9 					"/>
					<g id="XMLID_427_">
						<polygon id="XMLID_456_" class="st19" points="435.1,204.1 414,276.6 297.9,242.8 319,170.3 334.9,166.9 386.2,155.8 						
							"/>
						<g id="XMLID_445_">
							<polygon id="XMLID_446_" class="st20" points="435.8,201.5 434.6,205.8 385.7,157.5 318.5,172 319.8,167.7 386.9,153.2 
															"/>
						</g>
						<g id="XMLID_443_">
							<polygon id="XMLID_444_" class="st9" points="441.6,201 439.5,208.2 386.3,155.5 313,171.4 315.1,164.2 388.3,148.3 							
								"/>
						</g>
						
							<rect id="XMLID_455_" x="353.4" y="193.7" transform="matrix(0.2795 -0.9601 0.9601 0.2795 7.39 528.7318)" class="st16" width="5.2" height="131.6"/>
					</g>
					<g id="XMLID_430_">
						
							<rect id="XMLID_442_" x="342.3" y="180.4" transform="matrix(0.2795 -0.9601 0.9601 0.2795 66.9932 481.4425)" class="st16" width="24" height="31.4"/>
						<g id="XMLID_431_">
							<g id="XMLID_438_">
								
									<rect id="XMLID_441_" x="341.6" y="184.7" transform="matrix(0.2795 -0.9601 0.9601 0.2795 68.6701 467.518)" class="st21" width="8.6" height="6.7"/>
								
									<rect id="XMLID_440_" x="351.5" y="187.6" transform="matrix(0.2795 -0.9601 0.9601 0.2795 73.0703 479.158)" class="st21" width="8.6" height="6.7"/>
								
									<rect id="XMLID_439_" x="361.5" y="190.5" transform="matrix(0.2795 -0.9601 0.9601 0.2795 77.4519 490.7896)" class="st21" width="8.6" height="6.7"/>
							</g>
							<g id="XMLID_432_">
								
									<rect id="XMLID_437_" x="338.5" y="195" transform="matrix(0.2795 -0.9601 0.9601 0.2795 56.5343 472.0956)" class="st21" width="8.6" height="6.7"/>
								
									<rect id="XMLID_436_" x="348.5" y="197.9" transform="matrix(0.2795 -0.9601 0.9601 0.2795 60.9295 483.722)" class="st21" width="8.6" height="6.7"/>
								
									<rect id="XMLID_434_" x="358.4" y="200.8" transform="matrix(0.2795 -0.9601 0.9601 0.2795 65.3162 495.3671)" class="st21" width="8.6" height="6.7"/>
							</g>
						</g>
					</g>
					<g id="XMLID_429_">
						
							<rect id="XMLID_459_" x="385.2" y="192.9" transform="matrix(0.2795 -0.9601 0.9601 0.2795 85.9162 531.6177)" class="st16" width="24" height="31.4"/>
						<g id="XMLID_447_">
							<g id="XMLID_452_">
								
									<rect id="XMLID_458_" x="384.5" y="197.1" transform="matrix(0.2795 -0.9601 0.9601 0.2795 87.5931 517.6932)" class="st21" width="8.6" height="6.7"/>
								
									<rect id="XMLID_457_" x="394.4" y="200" transform="matrix(0.2795 -0.9601 0.9601 0.2795 91.9747 529.3249)" class="st21" width="8.6" height="6.7"/>
								
									<rect id="XMLID_454_" x="404.3" y="202.9" transform="matrix(0.2795 -0.9601 0.9601 0.2795 96.3615 540.9699)" class="st21" width="8.6" height="6.7"/>
							</g>
							<g id="XMLID_448_">
								
									<rect id="XMLID_451_" x="381.4" y="207.5" transform="matrix(0.2795 -0.9601 0.9601 0.2795 75.4574 522.2708)" class="st21" width="8.6" height="6.7"/>
								
									<rect id="XMLID_450_" x="391.4" y="210.4" transform="matrix(0.2795 -0.9601 0.9601 0.2795 79.8391 533.9023)" class="st21" width="8.6" height="6.7"/>
								
									<rect id="XMLID_449_" x="401.3" y="213.3" transform="matrix(0.2795 -0.9601 0.9601 0.2795 84.2206 545.5339)" class="st21" width="8.6" height="6.7"/>
							</g>
						</g>
					</g>
					<g id="XMLID_426_">
						<polygon id="XMLID_23_" class="st22" points="316.9,248.9 246.7,228.4 263.4,171.2 305.7,156.6 333.6,191.6 						"/>
						<g id="XMLID_425_">
							<polygon id="XMLID_433_" class="st23" points="334.2,189.6 333.2,193 305.3,157.9 263,172.5 264,169.1 306.3,154.5 							
								"/>
						</g>
						<g id="XMLID_424_">
							<polygon id="XMLID_435_" class="st9" points="337.8,188.9 336.1,194.6 305.8,156.4 259.6,172.3 261.3,166.6 307.4,150.7 
															"/>
						</g>
						<g id="XMLID_422_">
							
								<rect id="XMLID_372_" x="278.4" y="189.9" transform="matrix(0.2795 -0.9601 0.9601 0.2795 11.3844 428.3648)" class="st16" width="25.5" height="33.3"/>
							<g id="XMLID_411_">
								<g id="XMLID_382_">
									
										<rect id="XMLID_374_" x="277.6" y="194.5" transform="matrix(0.2795 -0.9601 0.9601 0.2795 13.1557 413.5909)" class="st21" width="9.1" height="7.1"/>
									
										<rect id="XMLID_403_" x="288.2" y="197.6" transform="matrix(0.2795 -0.9601 0.9601 0.2795 17.8173 425.9357)" class="st21" width="9.1" height="7.1"/>
									
										<rect id="XMLID_410_" x="298.7" y="200.6" transform="matrix(0.2795 -0.9601 0.9601 0.2795 22.4654 438.2857)" class="st21" width="9.1" height="7.1"/>
								</g>
								<g id="XMLID_418_">
									
										<rect id="XMLID_421_" x="274.4" y="205.5" transform="matrix(0.2795 -0.9601 0.9601 0.2795 0.29 418.4491)" class="st21" width="9.1" height="7.1"/>
									
										<rect id="XMLID_420_" x="285" y="208.6" transform="matrix(0.2795 -0.9601 0.9601 0.2795 4.9382 430.7989)" class="st21" width="9.1" height="7.1"/>
									
										<rect id="XMLID_419_" x="295.5" y="211.6" transform="matrix(0.2795 -0.9601 0.9601 0.2795 9.5947 443.1303)" class="st21" width="9.1" height="7.1"/>
								</g>
							</g>
						</g>
						
							<rect id="XMLID_423_" x="279.8" y="198.6" transform="matrix(0.2795 -0.9601 0.9601 0.2795 -25.8331 442.397)" class="st16" width="4.1" height="79.6"/>
					</g>
					
						<rect id="XMLID_460_" x="443.4" y="250.2" transform="matrix(0.2795 -0.9601 0.9601 0.2795 47.1065 634.0334)" class="st16" width="5.2" height="70.9"/>
					<g id="XMLID_474_">
						<polygon id="XMLID_470_" class="st9" points="418.6,183 408.7,176 412.4,163.4 423.3,166.6 						"/>
						
							<rect id="XMLID_472_" x="416.6" y="158.2" transform="matrix(0.2795 -0.9601 0.9601 0.2795 143.0548 519.8875)" class="st24" width="2.6" height="12.8"/>
					</g>
					<g id="XMLID_486_">
						
							<ellipse id="XMLID_484_" transform="matrix(0.2795 -0.9601 0.9601 0.2795 53.5659 412.858)" class="st16" cx="301.9" cy="170.7" rx="6" ry="6"/>
						<path id="XMLID_485_" class="st21" d="M306.2,172c-0.7,2.4-3.2,3.8-5.6,3.1c-2.4-0.7-3.8-3.2-3.1-5.6c0.7-2.4,3.2-3.8,5.6-3.1
							C305.6,167.1,307,169.6,306.2,172z"/>
					</g>
					<g id="XMLID_542_">
						
							<rect id="XMLID_475_" x="373.6" y="240.3" transform="matrix(0.2795 -0.9601 0.9601 0.2795 42.8181 556.3235)" class="st16" width="36.9" height="18.7"/>
						<g id="XMLID_499_">
							<polygon id="XMLID_498_" class="st21" points="379.5,263.8 379.2,263.7 388.8,230.7 404.9,235.4 404.8,235.8 389,231.2 
															"/>
						</g>
						<g id="XMLID_488_">
							<g id="XMLID_489_">
								
									<rect id="XMLID_491_" x="390.8" y="243" transform="matrix(0.2795 -0.9601 0.9601 0.2795 48.702 554.273)" class="st21" width="5.8" height="3.4"/>
							</g>
						</g>
						<path id="XMLID_487_" class="st21" d="M386.8,249c-0.1,0.5-0.6,0.8-1.1,0.6s-0.8-0.6-0.6-1.1c0.1-0.5,0.6-0.8,1.1-0.6
							C386.7,248,386.9,248.5,386.8,249z"/>
					</g>
				</g>
				<g id="XMLID_617_" class="st0">
					<path id="XMLID_635_" class="st25" d="M261.3,230.5c-0.4,1.3-1,2.5-1.9,3.5l-29.4-8.5c-0.3-1.4-0.3-3,0.2-4.5
						c1.4-5,6.6-7.8,11.6-6.3c0.5,0.1,0.9,0.3,1.3,0.5c2.3-2.8,6.1-4.1,9.8-3c4.4,1.3,7.1,5.5,6.7,10
						C261.4,224.4,262.2,227.5,261.3,230.5z"/>
					<path id="XMLID_620_" class="st26" d="M265.8,232.2c-0.4,1.3-1,2.5-1.9,3.5l-29.4-8.5c-0.3-1.4-0.3-3,0.2-4.5
						c1.4-5,6.6-7.8,11.6-6.3c0.5,0.1,0.9,0.3,1.3,0.5c2.3-2.8,6.1-4.1,9.8-3c4.4,1.3,7.1,5.5,6.7,10
						C265.9,226,266.7,229.1,265.8,232.2z"/>
				</g>
				<g id="XMLID_545_" class="st0">
					<path id="XMLID_633_" class="st25" d="M523.5,309.2c-0.2,0.6-0.4,1.1-0.6,1.6l-59.5-17.3c0-1.3,0.2-2.7,0.6-4.1
						c2.3-7.8,10.5-12.3,18.3-10.1c0.8,0.2,1.6,0.6,2.4,0.9c3.1-4,8.5-6,13.7-4.5c5.7,1.7,9.3,6.9,9.2,12.6c1.3,0.5,2.5,1.2,3.6,1.9
						c0.8,0.1,1.6,0.3,2.3,0.5C521.3,293.1,525.8,301.3,523.5,309.2z"/>
					<path id="XMLID_549_" class="st26" d="M533.2,312.6c-0.2,0.6-0.4,1.1-0.6,1.6l-59.5-17.3c0-1.3,0.2-2.7,0.6-4.1
						c2.3-7.8,10.5-12.3,18.3-10.1c0.8,0.2,1.6,0.6,2.4,0.9c3.1-4,8.5-6,13.7-4.5c5.7,1.7,9.3,6.9,9.2,12.6c1.3,0.5,2.5,1.2,3.6,1.9
						c0.8,0.1,1.6,0.3,2.3,0.5C530.9,296.6,535.4,304.8,533.2,312.6z"/>
				</g>
				<g id="XMLID_11_" class="st0">
					<path id="XMLID_13_" class="st25" d="M197.8,214.3c-0.2,0.6-0.4,1.1-0.6,1.6l-59.5-17.3c0-1.3,0.2-2.7,0.6-4.1
						c2.3-7.8,10.5-12.3,18.3-10.1c0.8,0.2,1.6,0.6,2.4,0.9c3.1-4,8.5-6,13.7-4.5c5.7,1.7,9.3,6.9,9.2,12.6c1.3,0.5,2.5,1.2,3.6,1.9
						c0.8,0.1,1.6,0.3,2.3,0.5C195.6,198.3,200,206.5,197.8,214.3z"/>
					<path id="XMLID_12_" class="st26" d="M207.4,217.8c-0.2,0.6-0.4,1.1-0.6,1.6l-59.5-17.3c0-1.3,0.2-2.7,0.6-4.1
						c2.3-7.8,10.5-12.3,18.3-10.1c0.8,0.2,1.6,0.6,2.4,0.9c3.1-4,8.5-6,13.7-4.5c5.7,1.7,9.3,6.9,9.2,12.6c1.3,0.5,2.5,1.2,3.6,1.9
						c0.8,0.1,1.6,0.3,2.3,0.5C205.2,201.8,209.7,210,207.4,217.8z"/>
				</g>
				<g id="XMLID_619_" class="st0">
					
						<rect id="XMLID_546_" x="217.1" y="213.1" transform="matrix(0.2795 -0.9601 0.9601 0.2795 -43.7399 371.5283)" class="st27" width="17.2" height="3.6"/>
					<path id="XMLID_636_" class="st26" d="M247.6,192.3c-3.9,13.5-13.5,22.7-21.3,20.4c-5.2-1.5-8.3-7.7-8.7-15.6
						c-0.2-4,0.3-8.5,1.7-13c3.9-13.5,13.5-22.7,21.3-20.4c3.4,1,5.9,3.9,7.3,8C249.8,177.1,249.9,184.6,247.6,192.3z"/>
					<path id="XMLID_634_" class="st25" d="M246.2,184.7c-3.9,13.5-13.5,22.7-21.3,20.4c-3.4-1-5.9-3.9-7.3-8c-0.2-4,0.3-8.5,1.7-13
						c3.9-13.5,13.5-22.7,21.3-20.4c3.4,1,5.9,3.9,7.3,8C248.1,175.6,247.5,180.1,246.2,184.7z"/>
				</g>
				<g id="XMLID_3_" class="st0">
					<path id="XMLID_9_" class="st26" d="M554.6,281.7c-3.9,13.5-13.5,22.7-21.3,20.4c-5.2-1.5-8.3-7.7-8.7-15.6
						c-0.2-4,0.3-8.5,1.7-13c3.9-13.5,13.5-22.7,21.3-20.4c3.4,1,5.9,3.9,7.3,8C556.8,266.4,556.8,273.9,554.6,281.7z"/>
					<path id="XMLID_8_" class="st25" d="M553.2,274c-3.9,13.5-13.5,22.7-21.3,20.4c-3.4-1-5.9-3.9-7.3-8c-0.2-4,0.3-8.5,1.7-13
						c3.9-13.5,13.5-22.7,21.3-20.4c3.4,1,5.9,3.9,7.3,8C555,265,554.5,269.5,553.2,274z"/>
				</g>
			</g>
		</g>
	</g>
	<g>
		<g>
			<defs>
				<rect id="SVGID_1_" x="-71.9" y="62.2" width="601.2" height="601.2"/>
			</defs>
			<clipPath id="SVGID_00000134249736715511991780000000199977814044220084_">
				<use xlink:href="#SVGID_1_"  style="overflow:visible;"/>
			</clipPath>
			<g id="XMLID_341_" style="clip-path:url(#SVGID_00000134249736715511991780000000199977814044220084_);">
				<g id="XMLID_348_">
					<path id="XMLID_350_" class="st29" d="M268.7,300.6c0,0-10.8-1.1-17.6-0.1c-6.8,1-25.2,0.6-28.3,1.1c-3.1,0.5,3,3.9,3,3.9
						l34.6,1.5l9.5-0.6L268.7,300.6z"/>
					<path id="XMLID_349_" class="st30" d="M268.5,305.5c0,0-13.4-1.3-18.6-1.2c-5.2,0.1-18.4-1.5-22.8-2.4
						c-4.4-0.9-18-4.4-23.1-1.8c-5.1,2.6-5.7,5-5.7,6.3c0,1.3,9.8,5.1,13.1,5.6c3.4,0.5,55.8,9.2,62.2,7.5c6.3-1.6,8.2-3.3,7.7-6.1
						C280.7,310.4,268.5,305.5,268.5,305.5z"/>
				</g>
				<path id="XMLID_347_" class="st31" d="M415.5,308.8c0,0-32.4-25-41.5-29.2c-9.1-4.1-23.3-3.8-30.2-2.6
					c-6.9,1.2-27.5,6.8-36.1,11.3s-36.7,6.8-40.7,10c-4,3.2-1.2,13.4,8.7,15.3c0,0-11.3-2.7-16.9-3.1c-5.7-0.4-16.7-2-20.9-1.9
					c-4.1,0.2-15.4-1.6-17.5-2.3c-2.1-0.7-14.6-2.5-18.2,5c-3.6,7.5,44.4,17.6,50.6,18.4c6.3,0.8,27.3,5.1,41.5,8.6
					c14.2,3.5,18.5-0.8,23.3-3.6c4.8-2.9,30.4-12.8,35.7-13c5.3-0.2,25.5,12.8,25.5,12.8L415.5,308.8z"/>
				<g id="XMLID_342_">
					<polygon id="XMLID_346_" class="st32" points="372.6,332.5 380.5,339.5 386.6,344.9 422,312.1 417.5,308.4 409.8,302 					"/>
					<polygon id="XMLID_345_" class="st33" points="380.5,339.5 386.6,344.9 422,312.1 417.5,308.4 					"/>
					<polygon id="XMLID_344_" class="st34" points="378.8,344.6 582.7,534.7 617.4,496.7 631.9,480.8 421,307.6 404.6,322 					"/>
					<polygon id="XMLID_343_" class="st35" points="378.8,344.6 582.7,534.7 617.4,496.7 404.6,322 					"/>
				</g>
			</g>
		</g>
		<g>
			<defs>
				<rect id="SVGID_00000176028980051551135030000008045514339909980344_" x="-71.9" y="62.2" width="601.2" height="601.2"/>
			</defs>
			<clipPath id="SVGID_00000096017235651915375810000018168177777328588432_">
				<use xlink:href="#SVGID_00000176028980051551135030000008045514339909980344_"  style="overflow:visible;"/>
			</clipPath>
			<g id="XMLID_482_" style="clip-path:url(#SVGID_00000096017235651915375810000018168177777328588432_);">
				<g id="XMLID_22_">
					<path id="XMLID_26_" class="st29" d="M182.4,101.9c0,0,21.1-2.2,37.3-6.7c16.2-4.5,21.2-0.7,22.2,0.9
						c0.9,1.6,1.1,9.7-11.3,13.6c-12.5,3.8-43.5,5.3-43.5,5.3L182.4,101.9z"/>
					<path id="XMLID_25_" class="st30" d="M151.1,155.5c0,0,4.8-21.8,46.5-26.8l-36.3-10.9c0,0-21.4,8.2-21.3,9.4
						C140.1,128.3,151.1,155.5,151.1,155.5z"/>
					<path id="XMLID_24_" class="st30" d="M181.4,100.4c0,0,44.8,12.7,55,15.7c10.2,3,26.2,13.3,25.2,16.1
						c0.7,6.4-14.1,10.4-27.6,3.1c-14.5-7.1-41.3-16-41.3-16L181.4,100.4z"/>
					<g id="XMLID_259_">
						<path id="XMLID_354_" class="st37" d="M222.2,201c-10,0.7-17.6,9.4-16.8,19.5c0,0.3,0,0.6,0.1,0.9c0,0.3,0.1,0.6,0.1,1
							c1.2,7.1,6.5,12.6,13.2,14.4c0.7,0.2,1.5,0.3,2.2,0.5c0.6,0.1,1.1,0.1,1.7,0.2c0.7,0,1.4,0,2.1,0c2.5-0.2,4.8-0.8,6.9-1.9
							c5.8-3,9.8-8.9,10-15.7c0-0.3,0-0.6,0-1c0-0.3,0-0.6,0-0.9C240.9,207.8,232.2,200.3,222.2,201z M219.3,218.8
							c-3.3,0.2-6.1-2.2-6.4-5.5c-0.2-2.4,1.1-4.5,3-5.6c0.7-0.4,1.6-0.7,2.5-0.8c0.1,0,0.3,0,0.4,0c1.9,0,3.6,0.9,4.7,2.3
							c0.4,0.5,0.7,1,0.9,1.6c0.2,0.5,0.3,1.1,0.4,1.7C225,215.7,222.6,218.6,219.3,218.8z"/>
						<path id="XMLID_356_" class="st37" d="M241.6,217.1c0-0.3-0.1-0.6-0.1-0.8c-1.6-9.1-9.8-15.7-19.3-15
							c-9.4,0.7-16.6,8.4-16.9,17.6c0,0.3,0,0.6,0,0.9c0,0.3,0,0.6,0,1c0.6,7.9,6.1,14.3,13.4,16.2c0.7,0.2,1.5,0.3,2.2,0.5
							c1,0.1,2,0.2,3,0.2c0.3,0,0.6,0,0.9,0c2.5-0.2,4.8-0.8,6.9-1.9c6.4-3.2,10.5-10,10-17.6C241.7,217.7,241.6,217.4,241.6,217.1z
							 M218.2,203.5c3.3-0.2,6.1,2.2,6.4,5.5c0.2,3.3-2.2,6.1-5.5,6.4c-3.3,0.2-6.1-2.2-6.4-5.5
							C212.4,206.6,214.9,203.8,218.2,203.5z"/>
						<path id="XMLID_370_" class="st38" d="M228,245.3l4.5,1.2l0.3,4.2l-3.2,1.3c-1.8,0.8-1.7,2.8,0.2,3.3l3.4,0.9l0.3,4.3
							l-4.3,2.3c-1.4,0.7-1.2,2.8,0.2,3.3l4.6,1.7l0.5,7.2c0.2,3.1-0.8,6.2-2.9,8.5l0,0c-1.6,1.7-5,2.8-6.8,1.3
							c-1.2-1-1.9-2.4-2.4-4c-0.5-1.6-0.7-3.3-0.8-4.8l-3-41.4l13-0.9l0.5,6.7l-4.3,1.8C225.9,242.8,226.1,244.8,228,245.3z"/>
						<path id="XMLID_371_" class="st39" d="M231.4,231.8l0.6,7.6l-4.3,1.8c-1.8,0.8-1.7,2.8,0.2,3.3l4.5,1.2l0.3,4.2l-3.2,1.3
							c-1.8,0.8-1.7,2.8,0.2,3.3l3.4,0.9l0.3,4.3l-4.3,2.3c-1.4,0.7-1.2,2.8,0.2,3.3l4.6,1.7l0.5,6.2c0.2,3.1-0.8,6.2-2.9,8.5l0,0
							c-1.6,1.7-5,2.8-6.8,1.3c-1.2-1-1.9-2.4-2.4-4c-0.5-1.6-0.7-3.3-0.8-4.8l-3-41.4L231.4,231.8z"/>
						<path id="XMLID_351_" class="st38" d="M227,278.7L227,278.7c-1.8-1-3-2.8-3.3-4.9c0-0.2,0-0.4-0.1-0.6l-2.9-40.1l3.1,1.5
							L227,278.7z"/>
						<path id="XMLID_355_" class="st38" d="M218.5,232.7l0.3,3.7c0.7,0.2,1.5,0.3,2.2,0.5c1,0.1,2,0.2,3,0.2c0.3,0,0.6,0,0.9,0
							c2.5-0.2,4.8-0.8,6.9-1.9l-0.2-3.4L218.5,232.7z"/>
						<path id="XMLID_352_" class="st40" d="M241.5,215.2c-1.1-9.6-9.7-16.7-19.4-16c-9.7,0.7-17.1,9-16.9,18.6c0,0.3,0,0.6,0,0.9
							c0,0.3,0.1,0.6,0.1,1c0.9,7.5,6.3,13.4,13.3,15.3c0.7,0.2,1.5,0.3,2.2,0.5c1,0.1,2,0.2,3,0.2c0.3,0,0.6,0,0.9,0
							c2.5-0.2,4.8-0.8,6.9-1.9c6.1-3.1,10.1-9.4,10-16.6c0-0.3,0-0.6,0-1C241.5,215.8,241.5,215.5,241.5,215.2z M218.2,203.5
							c3.3-0.2,6.1,2.2,6.4,5.5c0.2,3.3-2.2,6.1-5.5,6.4c-3.3,0.2-6.1-2.2-6.4-5.5C212.4,206.6,214.9,203.8,218.2,203.5z"/>
						<path id="XMLID_365_" class="st41" d="M240.8,210.8C240.8,210.8,240.8,210.8,240.8,210.8c-0.1-0.3-0.2-0.7-0.3-1
							c-0.1-0.4-0.3-0.8-0.4-1.1c-0.6-1.5-1.5-2.9-2.5-4.2c-0.6-0.8-1.3-1.6-2.1-2.2c-1.3-1.2-2.8-2.2-4.4-2.9
							c-0.6-0.3-1.1-0.5-1.7-0.7c-2.3-0.8-4.8-1.2-7.4-1c-3.6,0.3-6.8,1.5-9.5,3.5c-0.6,0.5-1.2,0.9-1.7,1.5
							c-3.8,3.6-6,8.9-5.6,14.5c0,0.3,0,0.6,0.1,0.9c0,0.3,0.1,0.6,0.1,1c1.2,7.1,6.5,12.6,13.2,14.4c0.7,0.2,1.5,0.3,2.2,0.5
							c0.6,0.1,1.1,0.1,1.7,0.2c0.7,0,1.4,0,2.1,0c2.5-0.2,4.8-0.8,6.9-1.9c1.2-0.6,2.3-1.3,3.3-2.2c0.3-0.3,0.7-0.6,1-0.9
							c3.4-3.2,5.5-7.7,5.6-12.7c0-0.3,0-0.6,0-1c0-0.3,0-0.6,0-0.9C241.3,213.1,241.1,211.9,240.8,210.8z M224.5,209.5
							c0,0.8-0.2,1.5-0.5,2.2c-0.3,0.7-0.8,1.4-1.3,2c-1,0.9-2.2,1.5-3.7,1.6c-3.3,0.2-6.1-2.2-6.4-5.5c-0.1-1.5,0.3-2.8,1.1-3.9
							c0.4-0.6,1-1.1,1.7-1.6c0.8-0.5,1.7-0.8,2.7-0.9c2.4-0.2,4.5,1.1,5.6,3c0.4,0.7,0.7,1.6,0.8,2.5
							C224.5,209.2,224.5,209.4,224.5,209.5z"/>
					</g>
					<path id="XMLID_363_" class="st40" d="M243.5,210.6c-0.8,0-1.6-0.2-2.4-0.5c-0.2-0.1-0.4-0.2-0.6-0.3c0,0-0.1,0-0.1-0.1
						c-0.5-0.3-1-0.7-1.4-1.1c-0.1-0.1-0.2-0.2-0.3-0.3c-0.1-0.1-0.2-0.3-0.3-0.4c-0.7-1.1-1-2.3-1-3.5c-0.6-0.8-1.3-1.6-2.1-2.2
						c-1.3-1.2-2.8-2.2-4.4-2.9c-2.1,2-3.6,4.4-4.6,7c-0.8,2.3-1.2,4.8-1,7.2c0.1,1.2,0.2,2.3,0.5,3.5c0.2,0.7,0.4,1.5,0.7,2.2
						c0.4,1.1,1,2.2,1.7,3.3c0.2,0.2,0.3,0.5,0.5,0.7c0.2,0.3,0.4,0.5,0.6,0.8c1.8,2.2,3.9,3.8,6.3,5c0.6,0.3,1.1,0.5,1.7,0.7
						c4-3.3,6.5-8.2,6.6-13.6c0-0.3,0-0.6,0-1c0-0.3,0-0.6,0-0.9C244,212.9,243.8,211.7,243.5,210.6z"/>
					<g id="XMLID_359_">
						<path id="XMLID_396_" class="st42" d="M264.4,206c-0.1-0.3-0.3-0.6-0.5-0.9c-0.1-0.2-0.3-0.5-0.5-0.7
							c-5.5-8.4-16.8-10.7-25.2-5.2c-8.4,5.5-10.7,16.8-5.2,25.2c0.2,0.2,0.3,0.5,0.5,0.7c0.2,0.3,0.4,0.5,0.6,0.8
							c4.3,5.3,11.1,7.6,17.5,6.4c2.3-0.4,4.5-1.3,6.6-2.7c0.6-0.4,1.2-0.8,1.7-1.3c0.4-0.4,0.9-0.8,1.3-1.2c0.5-0.6,1-1.1,1.5-1.7
							C266.9,219.9,267.7,212.3,264.4,206z M251.4,211.6c-2.7,1.8-6.4,1-8.2-1.7c-0.3-0.5-0.6-1-0.7-1.6l0,0
							c-0.1-0.3-0.1-0.6-0.2-0.8c0-0.3-0.1-0.6-0.1-0.9c0-1.8,0.9-3.5,2.4-4.7c0.1-0.1,0.2-0.2,0.3-0.2c0.8-0.5,1.6-0.8,2.5-0.9
							c0.8-0.1,1.6-0.1,2.3,0.1c0.7,0.2,1.4,0.5,2.1,1c0.5,0.4,1,0.9,1.4,1.5C254.9,206.1,254.2,209.8,251.4,211.6z"/>
						<path id="XMLID_392_" class="st42" d="M233.2,224.6c4.2,6.3,11.6,9.2,18.6,7.9c2.3-0.4,4.5-1.3,6.6-2.7
							c0.2-0.2,0.5-0.3,0.7-0.5c0.8-0.6,1.6-1.2,2.2-1.9c0.5-0.6,1-1.1,1.5-1.7c4.6-6,5.1-14.4,0.7-21.1c-0.2-0.3-0.4-0.5-0.6-0.8
							c-0.2-0.2-0.3-0.5-0.5-0.7c-5.8-7.2-16.3-8.9-24.1-3.7c-7.9,5.2-10.4,15.4-6.1,23.6c0.1,0.3,0.3,0.5,0.4,0.7
							C232.8,224.1,233,224.4,233.2,224.6z M251.2,200.5c1.8,2.7,1,6.4-1.7,8.2c-2.7,1.8-6.4,1-8.2-1.7c-1.8-2.7-1-6.4,1.7-8.2
							C245.7,197,249.4,197.7,251.2,200.5z"/>
						<path id="XMLID_388_" class="st38" d="M260.6,237.9l-2.8,3.7l2.3,3.5l3.4-0.9c1.9-0.5,3.1,1.2,1.8,2.8l-2.1,2.7l2.3,3.6
							l4.8-0.8c1.6-0.3,2.7,1.4,1.8,2.8l-2.6,4.1l4,6c1.7,2.6,4.4,4.4,7.5,5h0c2.3,0.4,5.7-0.8,6.2-3.1c0.3-1.5,0-3.1-0.5-4.7
							s-1.4-3-2.3-4.3l-22.8-34.7l-10.9,7.2l3.7,5.6l4.5-1.2C260.7,234.7,261.9,236.4,260.6,237.9z"/>
						<path id="XMLID_384_" class="st39" d="M249.7,229.3l4.2,6.4l4.5-1.2c1.9-0.5,3.1,1.2,1.8,2.8l-2.8,3.7l2.3,3.5l3.4-0.9
							c1.9-0.5,3.1,1.2,1.8,2.8l-2.1,2.7l2.3,3.6l4.8-0.8c1.6-0.3,2.7,1.4,1.8,2.8l-2.6,4.1l3.4,5.2c1.7,2.6,4.4,4.4,7.5,5h0
							c2.3,0.4,5.7-0.8,6.2-3.1c0.3-1.5,0-3.1-0.5-4.7c-0.6-1.6-1.4-3-2.3-4.3l-22.8-34.7L249.7,229.3z"/>
						<path id="XMLID_381_" class="st38" d="M281.8,263.8L281.8,263.8c0.8-1.9,0.7-4.1-0.4-5.9c-0.1-0.2-0.2-0.4-0.3-0.5L259,223.8
							l-1.5,3L281.8,263.8z"/>
						<path id="XMLID_376_" class="st38" d="M249.7,229.3l1.9,2.8c2.3-0.4,4.5-1.3,6.6-2.7c0.2-0.2,0.5-0.3,0.7-0.5
							c0.8-0.6,1.6-1.2,2.2-1.9c0.5-0.6,1-1.1,1.5-1.7l-2.1-3.1L249.7,229.3z"/>
						<path id="XMLID_367_" class="st43" d="M232.1,223c0.2,0.3,0.4,0.5,0.6,0.8c4.3,5.8,11.3,8.3,18,7.1c2.3-0.4,4.5-1.3,6.6-2.7
							c0.2-0.2,0.5-0.3,0.7-0.5c0.8-0.6,1.6-1.2,2.2-1.9c0.5-0.6,1-1.1,1.5-1.7c4.4-5.7,5-13.7,1.2-20.2c-0.2-0.3-0.3-0.6-0.5-0.8
							c-0.2-0.2-0.3-0.5-0.5-0.7c-5.7-7.8-16.6-9.9-24.7-4.5c-8.2,5.4-10.6,16.2-5.6,24.5C231.8,222.5,232,222.8,232.1,223z
							 M251.2,200.5c1.8,2.7,1,6.4-1.7,8.2c-2.7,1.8-6.4,1-8.2-1.7c-1.8-2.7-1-6.4,1.7-8.2C245.7,197,249.4,197.7,251.2,200.5z"/>
						<path id="XMLID_362_" class="st44" d="M262.5,203.1c-0.2-0.3-0.3-0.6-0.5-0.9c-0.1-0.2-0.3-0.5-0.5-0.7c-1.7-2.6-4-4.7-6.6-6
							c-0.7-0.4-1.4-0.7-2.1-0.9c-1.5-0.6-3-0.9-4.6-1.1c-0.8-0.1-1.5-0.1-2.3-0.1c-3.3,0.1-6.7,1-9.6,3c-6.7,4.4-9.5,12.4-7.6,19.8
							c0.2,0.7,0.4,1.5,0.7,2.2c0.4,1.1,1,2.2,1.7,3.3c0.2,0.2,0.3,0.5,0.5,0.7c0.2,0.3,0.4,0.5,0.6,0.8c4.3,5.3,11.1,7.6,17.5,6.4
							c2.3-0.4,4.5-1.3,6.6-2.7c0.6-0.4,1.2-0.8,1.7-1.3c0.4-0.4,0.9-0.8,1.3-1.2c0.5-0.6,1-1.1,1.5-1.7
							C265.1,217.1,265.8,209.5,262.5,203.1z M249.5,208.7c-1.7,1.2-3.9,1.3-5.7,0.5c-0.2-0.1-0.4-0.2-0.6-0.3
							c-0.6-0.3-1-0.7-1.5-1.2c-0.1-0.1-0.2-0.2-0.3-0.3c-0.1-0.1-0.2-0.3-0.3-0.4c-1.8-2.7-1-6.4,1.7-8.2c0.8-0.5,1.8-0.9,2.7-0.9
							c0.8-0.1,1.5,0,2.3,0.2c1,0.3,1.9,0.8,2.6,1.6c0.3,0.3,0.5,0.6,0.7,0.9c0.3,0.4,0.5,0.8,0.6,1.2
							C252.8,204.2,251.9,207.2,249.5,208.7z"/>
					</g>
					<path id="XMLID_404_" class="st38" d="M251.7,201.9c-2.1,3-4.7,5.5-7.9,7.3c-0.2-0.1-0.4-0.2-0.6-0.3c-0.3-0.2-0.6-0.4-0.9-0.6
						l0,0c-0.1-0.3-0.1-0.6-0.2-0.8c2.9-1.6,5.4-3.9,7.4-6.6C250.4,201.1,251.1,201.4,251.7,201.9z"/>
					<path id="XMLID_406_" class="st38" d="M251.8,201.7c0,0.1-0.1,0.1-0.1,0.2c-0.6-0.5-1.3-0.8-2.1-1c0.3-0.4,0.6-0.8,0.9-1.3
						c0.3,0.3,0.5,0.6,0.7,0.9C251.5,200.9,251.7,201.3,251.8,201.7z"/>
					<path id="XMLID_364_" class="st38" d="M223.5,209.2c-1.7-0.6-3.2-1.3-4.7-2.3c-1.2-0.7-2.3-1.6-3.3-2.5c-1.1-1-2.1-2.1-3-3.3
						c-0.2,0.2-0.4,0.3-0.6,0.5c0.2-0.2,0.4-0.3,0.6-0.5c-2.5-3.4-4.1-7.5-4.4-11.9c-0.1-2,0-4.1,0.3-6c-0.8,0.1-1.6,0.2-2.4,0.2
						c-0.3,1.9-0.4,3.9-0.3,5.9c0.4,5,2.2,9.5,4.9,13.2l0,0c0.9,1.2,1.9,2.4,3.1,3.4c0.2-0.3,0.5-0.6,0.8-0.9
						c-0.3,0.3-0.5,0.5-0.8,0.9c0.7,0.6,1.4,1.2,2.1,1.8c2.4,1.8,5.2,3.2,8.2,4c0.1-0.3,0.2-0.7,0.3-1
						C224.2,210.2,223.9,209.7,223.5,209.2z"/>
					<path id="XMLID_353_" class="st38" d="M245.6,166.8c-4.6-3.3-10.3-5-16.4-4.6c-0.8,0.1-1.6,0.2-2.3,0.3c-2.5,0.4-4.8,1.2-7,2.2
						c0.8,0.5,1.4,1,1.9,1.6c2.2-0.9,4.5-1.6,7-1.8c0.2,0,0.4,0,0.6,0c5.9-0.4,11.5,1.4,15.8,4.8c4.9,3.9,8.3,9.7,8.8,16.4
						c0.2,3.1-0.2,6-1.1,8.8c-0.6,1.8-1.4,3.5-2.4,5c0.3,0.3,0.5,0.6,0.7,0.9c0.3,0.4,0.5,0.8,0.6,1.2c1.3-1.9,2.4-4,3.1-6.2
						c1-3.1,1.5-6.4,1.3-9.9C255.6,177.8,251.5,171,245.6,166.8z"/>
					<path id="XMLID_408_" class="st31" d="M245.6,166.8c0,0.4,0,0.8,0,1.2c-0.1,0.5-0.2,0.9-0.3,1.4c-0.1,0.3-0.3,0.5-0.5,0.8
						c-0.2,0.3-0.4,0.5-0.7,0.7c-2.7,1.9-6.6,0.9-11.4-2.8c-0.8-0.6-1.5-1.2-2.3-2c-0.5-0.5-1-1-1.6-1.5c-0.6-0.6-1.3-1.3-1.9-2
						c-2.5-2.7-5.1-6-7.8-10c-6.3-9.1-8.5-17.5-18.7-22c-7.3-3.2-22-3.7-29.7-4c-18.6-0.7-16.7,6-17,10.8c-0.3,4.8,1,11.1,4.9,14.1
						c3.8,2.9,19,8.6,27.2,8c6.8-0.5,26.6,0.5,34.2,5.3c0.8,0.5,1.4,1,1.9,1.6c0.4,0.5,0.8,1.1,0.9,1.6c0.1,0.2,0.1,0.4,0.2,0.6
						c0.3,0.8,0.4,1.6,0.4,2.4c0.3,5.1-3.6,8.9-9.6,10.9c-0.9,0.3-1.8,0.5-2.7,0.7c-0.8,0.2-1.7,0.3-2.6,0.5
						c-0.8,0.1-1.6,0.2-2.4,0.2c-2.8,0.2-5.7,0.1-8.8-0.3c-15.6-2.2-40.1,0.5-53.4,4c-13.3,3.5-45.2,6-54.4,5.9
						c-9.2-0.2-28.4-41.5-28.4-41.5s81.4-53.5,95-57.8c13.5-1.6,48.8,13.4,62.2,23.1c0,0,15.9,25.6,19,30.7
						C239.7,151.2,245.3,160.9,245.6,166.8z"/>
					<polygon id="XMLID_27_" class="st32" points="43.2,157.3 62.4,148.5 89.3,196.2 71.7,205.2 					"/>
					<polygon id="XMLID_400_" class="st45" points="78.4,207.8 -174.9,323.9 -194.5,284.1 -208,256.8 46.7,152.4 61.2,177.7 					
						"/>
					<polygon id="XMLID_380_" class="st10" points="78.4,207.8 -174.9,323.9 -194.5,284.1 61.2,177.7 					"/>
					<path id="XMLID_402_" class="st38" d="M221.8,166.4c-6.9,3-12,9.3-13.4,16.8c-0.8,0.1-1.6,0.2-2.4,0.2
						c1.3-8.1,6.5-15,13.8-18.6C220.6,165.3,221.3,165.8,221.8,166.4z"/>
					<path id="XMLID_379_" class="st30" d="M222.9,168.7c0.3,0.8,0.4,1.6,0.4,2.4c-4.3,2.5-7.7,6.3-9.6,10.9
						c-0.9,0.3-1.8,0.5-2.7,0.7C213.1,176.7,217.3,171.7,222.9,168.7z"/>
				</g>
				<path id="XMLID_477_" class="st12" d="M60.2,199.1c0,2.6-2.1,4.8-4.8,4.8c-2.6,0-4.8-2.1-4.8-4.8c0-2.6,2.1-4.8,4.8-4.8
					C58,194.3,60.2,196.5,60.2,199.1z"/>
			</g>
		</g>
	</g>
</g>
<g id="DESIGNED_BY_FREEPIK" class="st0">
	<g class="st8">
		<g>
			<path class="st46" d="M179.6,482.4v-0.2c-0.2,0.2-0.4,0.5-0.6,0.6c-0.2,0.2-0.4,0.3-0.7,0.4s-0.5,0.1-0.8,0.1
				c-0.4,0-0.8-0.1-1.1-0.2c-0.3-0.2-0.6-0.4-0.9-0.7c-0.2-0.3-0.4-0.7-0.6-1.1c-0.1-0.4-0.2-0.9-0.2-1.3c0-1,0.2-1.8,0.7-2.4
				s1.1-0.9,1.9-0.9c0.5,0,0.9,0.1,1.2,0.2c0.3,0.2,0.6,0.4,0.9,0.7v-2.4c0-0.3,0.1-0.6,0.2-0.8c0.1-0.2,0.3-0.3,0.6-0.3
				s0.4,0.1,0.6,0.2c0.1,0.2,0.2,0.4,0.2,0.7v7.1c0,0.3-0.1,0.5-0.2,0.7s-0.3,0.2-0.6,0.2s-0.4-0.1-0.6-0.2
				C179.6,482.9,179.6,482.6,179.6,482.4z M176.4,480c0,0.4,0.1,0.8,0.2,1.1c0.1,0.3,0.3,0.5,0.6,0.7c0.2,0.2,0.5,0.2,0.8,0.2
				c0.3,0,0.5-0.1,0.8-0.2s0.4-0.4,0.6-0.7c0.1-0.3,0.2-0.7,0.2-1.1c0-0.4-0.1-0.8-0.2-1.1s-0.3-0.5-0.6-0.7s-0.5-0.2-0.8-0.2
				c-0.3,0-0.6,0.1-0.8,0.2c-0.2,0.2-0.4,0.4-0.5,0.7C176.4,479.2,176.4,479.6,176.4,480z"/>
			<path class="st46" d="M186.7,480.4h-3.2c0,0.4,0.1,0.7,0.2,1s0.3,0.5,0.6,0.6c0.2,0.1,0.5,0.2,0.8,0.2c0.2,0,0.4,0,0.5-0.1
				c0.2,0,0.3-0.1,0.5-0.2c0.1-0.1,0.3-0.2,0.4-0.3s0.3-0.3,0.5-0.5c0.1-0.1,0.2-0.1,0.4-0.1c0.2,0,0.3,0,0.4,0.1
				c0.1,0.1,0.1,0.2,0.1,0.4c0,0.1-0.1,0.3-0.2,0.5c-0.1,0.2-0.3,0.4-0.5,0.6c-0.2,0.2-0.5,0.3-0.9,0.5c-0.4,0.1-0.8,0.2-1.2,0.2
				c-1,0-1.9-0.3-2.4-0.9c-0.6-0.6-0.9-1.4-0.9-2.4c0-0.5,0.1-0.9,0.2-1.3c0.1-0.4,0.4-0.8,0.6-1c0.3-0.3,0.6-0.5,1-0.7
				c0.4-0.2,0.8-0.2,1.3-0.2c0.6,0,1.2,0.1,1.6,0.4c0.4,0.3,0.8,0.6,1,1c0.2,0.4,0.3,0.9,0.3,1.3c0,0.4-0.1,0.7-0.4,0.8
				C187.4,480.3,187.1,480.4,186.7,480.4z M183.5,479.5h2.9c0-0.5-0.2-1-0.4-1.2c-0.3-0.3-0.6-0.4-1-0.4c-0.4,0-0.7,0.1-1,0.4
				C183.7,478.5,183.6,478.9,183.5,479.5z"/>
			<path class="st46" d="M194.1,481.2c0,0.5-0.1,0.8-0.3,1.1s-0.5,0.6-1,0.7c-0.4,0.2-0.9,0.2-1.6,0.2c-0.6,0-1.1-0.1-1.5-0.3
				s-0.7-0.4-0.9-0.7c-0.2-0.3-0.3-0.5-0.3-0.8c0-0.2,0.1-0.3,0.2-0.5s0.3-0.2,0.5-0.2c0.2,0,0.3,0,0.4,0.1s0.2,0.2,0.3,0.4
				c0.2,0.3,0.4,0.5,0.6,0.6c0.2,0.1,0.6,0.2,0.9,0.2c0.3,0,0.6-0.1,0.8-0.2s0.3-0.3,0.3-0.5c0-0.3-0.1-0.5-0.3-0.6
				c-0.2-0.1-0.6-0.3-1.1-0.4c-0.6-0.1-1-0.3-1.4-0.4c-0.4-0.1-0.6-0.4-0.8-0.6c-0.2-0.2-0.3-0.6-0.3-0.9c0-0.3,0.1-0.6,0.3-0.9
				c0.2-0.3,0.5-0.5,0.9-0.7s0.8-0.3,1.4-0.3c0.4,0,0.8,0,1.1,0.1s0.6,0.2,0.8,0.4c0.2,0.1,0.4,0.3,0.5,0.5s0.2,0.4,0.2,0.5
				c0,0.2-0.1,0.3-0.2,0.5c-0.1,0.1-0.3,0.2-0.5,0.2c-0.2,0-0.3,0-0.4-0.1c-0.1-0.1-0.2-0.2-0.4-0.4c-0.1-0.2-0.3-0.3-0.4-0.4
				c-0.2-0.1-0.4-0.1-0.7-0.1s-0.5,0.1-0.7,0.2c-0.2,0.1-0.3,0.3-0.3,0.5c0,0.2,0.1,0.3,0.2,0.4c0.1,0.1,0.3,0.2,0.6,0.3
				c0.2,0.1,0.6,0.2,1,0.3c0.5,0.1,0.9,0.3,1.2,0.4c0.3,0.2,0.6,0.4,0.7,0.6C194,480.6,194.1,480.9,194.1,481.2z"/>
			<path class="st46" d="M195.7,475.9c-0.2,0-0.4-0.1-0.6-0.2c-0.2-0.1-0.2-0.3-0.2-0.6c0-0.2,0.1-0.4,0.2-0.6
				c0.2-0.1,0.4-0.2,0.6-0.2s0.4,0.1,0.6,0.2s0.2,0.3,0.2,0.6c0,0.2-0.1,0.4-0.2,0.6C196.1,475.9,196,475.9,195.7,475.9z
				 M196.5,477.6v4.7c0,0.3-0.1,0.6-0.2,0.7c-0.1,0.2-0.4,0.2-0.6,0.2c-0.2,0-0.4-0.1-0.6-0.3c-0.1-0.2-0.2-0.4-0.2-0.7v-4.6
				c0-0.3,0.1-0.6,0.2-0.7s0.3-0.2,0.6-0.2s0.4,0.1,0.6,0.2C196.5,477.1,196.5,477.3,196.5,477.6z"/>
			<path class="st46" d="M203.6,477.9v4.7c0,0.5-0.1,1-0.2,1.4s-0.3,0.7-0.6,1s-0.6,0.4-1,0.6s-0.9,0.2-1.5,0.2
				c-0.6,0-1.1-0.1-1.5-0.2c-0.4-0.2-0.8-0.4-1-0.6c-0.2-0.2-0.4-0.5-0.4-0.8c0-0.2,0.1-0.4,0.2-0.5c0.1-0.1,0.3-0.2,0.5-0.2
				c0.2,0,0.4,0.1,0.6,0.3c0.1,0.1,0.2,0.2,0.3,0.3c0.1,0.1,0.2,0.2,0.3,0.3s0.2,0.1,0.4,0.2s0.3,0.1,0.6,0.1c0.4,0,0.8-0.1,1-0.2
				s0.4-0.3,0.5-0.5c0.1-0.2,0.1-0.4,0.2-0.7c0-0.2,0-0.6,0-1.2c-0.2,0.4-0.5,0.6-0.9,0.8c-0.3,0.2-0.7,0.3-1.2,0.3
				c-0.5,0-1-0.1-1.4-0.4c-0.4-0.3-0.7-0.7-0.9-1.2c-0.2-0.5-0.3-1.1-0.3-1.7c0-0.5,0.1-0.9,0.2-1.3c0.1-0.4,0.3-0.7,0.6-1
				s0.5-0.5,0.9-0.6c0.3-0.1,0.7-0.2,1.1-0.2c0.5,0,0.9,0.1,1.2,0.3c0.3,0.2,0.6,0.5,0.9,0.8v-0.2c0-0.3,0.1-0.5,0.2-0.6
				s0.3-0.2,0.5-0.2c0.3,0,0.5,0.1,0.6,0.3C203.6,477.2,203.6,477.5,203.6,477.9z M198.9,479.9c0,0.7,0.1,1.1,0.4,1.5
				s0.7,0.5,1.1,0.5c0.3,0,0.5-0.1,0.8-0.2c0.2-0.1,0.4-0.4,0.6-0.6c0.1-0.3,0.2-0.6,0.2-1.1c0-0.7-0.1-1.2-0.4-1.5
				c-0.3-0.4-0.7-0.5-1.1-0.5c-0.5,0-0.8,0.2-1.1,0.5C199.1,478.8,198.9,479.3,198.9,479.9z"/>
			<path class="st46" d="M206.2,477.6v0.2c0.3-0.4,0.6-0.6,0.9-0.8c0.3-0.2,0.7-0.3,1.2-0.3c0.4,0,0.8,0.1,1.1,0.3s0.6,0.5,0.8,0.8
				c0.1,0.2,0.2,0.4,0.2,0.6c0,0.2,0.1,0.5,0.1,0.9v3c0,0.3-0.1,0.6-0.2,0.7c-0.1,0.2-0.3,0.2-0.6,0.2s-0.4-0.1-0.6-0.3
				c-0.1-0.2-0.2-0.4-0.2-0.7v-2.7c0-0.5-0.1-0.9-0.2-1.2c-0.1-0.3-0.4-0.4-0.9-0.4c-0.3,0-0.6,0.1-0.8,0.3
				c-0.2,0.2-0.4,0.4-0.5,0.7c-0.1,0.2-0.1,0.7-0.1,1.4v2c0,0.3-0.1,0.6-0.2,0.7s-0.4,0.2-0.6,0.2c-0.2,0-0.4-0.1-0.6-0.3
				c-0.1-0.2-0.2-0.4-0.2-0.7v-4.7c0-0.3,0.1-0.5,0.2-0.7c0.1-0.1,0.3-0.2,0.6-0.2c0.1,0,0.3,0,0.4,0.1c0.1,0.1,0.2,0.2,0.3,0.3
				C206.2,477.2,206.2,477.4,206.2,477.6z"/>
			<path class="st46" d="M216.1,480.4h-3.2c0,0.4,0.1,0.7,0.2,1s0.3,0.5,0.6,0.6c0.2,0.1,0.5,0.2,0.8,0.2c0.2,0,0.4,0,0.5-0.1
				c0.2,0,0.3-0.1,0.5-0.2c0.1-0.1,0.3-0.2,0.4-0.3s0.3-0.3,0.5-0.5c0.1-0.1,0.2-0.1,0.4-0.1c0.2,0,0.3,0,0.4,0.1
				c0.1,0.1,0.1,0.2,0.1,0.4c0,0.1-0.1,0.3-0.2,0.5c-0.1,0.2-0.3,0.4-0.5,0.6c-0.2,0.2-0.5,0.3-0.9,0.5c-0.4,0.1-0.8,0.2-1.2,0.2
				c-1,0-1.9-0.3-2.4-0.9c-0.6-0.6-0.9-1.4-0.9-2.4c0-0.5,0.1-0.9,0.2-1.3c0.1-0.4,0.4-0.8,0.6-1c0.3-0.3,0.6-0.5,1-0.7
				c0.4-0.2,0.8-0.2,1.3-0.2c0.6,0,1.2,0.1,1.6,0.4c0.4,0.3,0.8,0.6,1,1c0.2,0.4,0.3,0.9,0.3,1.3c0,0.4-0.1,0.7-0.4,0.8
				C216.8,480.3,216.5,480.4,216.1,480.4z M212.9,479.5h2.9c0-0.5-0.2-1-0.4-1.2c-0.3-0.3-0.6-0.4-1-0.4c-0.4,0-0.7,0.1-1,0.4
				C213.1,478.5,213,478.9,212.9,479.5z"/>
			<path class="st46" d="M222.7,482.4v-0.2c-0.2,0.2-0.4,0.5-0.6,0.6c-0.2,0.2-0.4,0.3-0.7,0.4s-0.5,0.1-0.8,0.1
				c-0.4,0-0.8-0.1-1.1-0.2c-0.3-0.2-0.6-0.4-0.9-0.7c-0.2-0.3-0.4-0.7-0.6-1.1c-0.1-0.4-0.2-0.9-0.2-1.3c0-1,0.2-1.8,0.7-2.4
				s1.1-0.9,1.9-0.9c0.5,0,0.9,0.1,1.2,0.2c0.3,0.2,0.6,0.4,0.9,0.7v-2.4c0-0.3,0.1-0.6,0.2-0.8c0.1-0.2,0.3-0.3,0.6-0.3
				s0.4,0.1,0.6,0.2c0.1,0.2,0.2,0.4,0.2,0.7v7.1c0,0.3-0.1,0.5-0.2,0.7s-0.3,0.2-0.6,0.2s-0.4-0.1-0.6-0.2
				C222.8,482.9,222.7,482.6,222.7,482.4z M219.5,480c0,0.4,0.1,0.8,0.2,1.1c0.1,0.3,0.3,0.5,0.6,0.7c0.2,0.2,0.5,0.2,0.8,0.2
				c0.3,0,0.6-0.1,0.8-0.2c0.2-0.1,0.4-0.4,0.6-0.7c0.1-0.3,0.2-0.7,0.2-1.1c0-0.4-0.1-0.8-0.2-1.1s-0.3-0.5-0.6-0.7
				s-0.5-0.2-0.8-0.2c-0.3,0-0.6,0.1-0.8,0.2c-0.2,0.2-0.4,0.4-0.5,0.7C219.6,479.2,219.5,479.6,219.5,480z"/>
			<path class="st46" d="M229.3,475.2v2.5c0.3-0.3,0.6-0.6,0.9-0.7c0.3-0.2,0.7-0.2,1.2-0.2c0.5,0,1,0.1,1.4,0.4
				c0.4,0.3,0.7,0.6,0.9,1.1c0.2,0.5,0.3,1.1,0.3,1.7c0,0.5-0.1,0.9-0.2,1.4c-0.1,0.4-0.3,0.8-0.5,1.1c-0.2,0.3-0.5,0.5-0.9,0.7
				c-0.3,0.2-0.7,0.2-1.1,0.2c-0.2,0-0.5,0-0.7-0.1s-0.4-0.1-0.6-0.2c-0.1-0.1-0.3-0.2-0.4-0.3c-0.1-0.1-0.2-0.3-0.4-0.5v0.2
				c0,0.3-0.1,0.5-0.2,0.7c-0.1,0.2-0.3,0.2-0.6,0.2s-0.4-0.1-0.6-0.2c-0.1-0.2-0.2-0.4-0.2-0.7v-7.1c0-0.3,0.1-0.6,0.2-0.7
				c0.1-0.2,0.3-0.2,0.6-0.2c0.2,0,0.4,0.1,0.6,0.2C229.2,474.7,229.3,474.9,229.3,475.2z M229.4,480c0,0.6,0.1,1.1,0.4,1.5
				c0.3,0.4,0.7,0.5,1.2,0.5c0.4,0,0.8-0.2,1.1-0.5c0.3-0.4,0.4-0.9,0.4-1.5c0-0.4-0.1-0.8-0.2-1.1c-0.1-0.3-0.3-0.5-0.5-0.7
				c-0.2-0.2-0.5-0.2-0.8-0.2c-0.3,0-0.6,0.1-0.8,0.2c-0.2,0.2-0.4,0.4-0.6,0.7C229.4,479.2,229.4,479.6,229.4,480z"/>
			<path class="st46" d="M236.2,483.5l0.1-0.4l-2-5c-0.1-0.3-0.2-0.5-0.2-0.6c0-0.1,0-0.3,0.1-0.4c0.1-0.1,0.2-0.2,0.3-0.3
				c0.1-0.1,0.2-0.1,0.4-0.1c0.2,0,0.4,0.1,0.5,0.2s0.2,0.4,0.3,0.6l1.4,4l1.3-3.7c0.1-0.3,0.2-0.5,0.3-0.7c0.1-0.2,0.2-0.3,0.3-0.3
				c0.1-0.1,0.2-0.1,0.4-0.1c0.1,0,0.2,0,0.4,0.1s0.2,0.1,0.3,0.3c0.1,0.1,0.1,0.2,0.1,0.4c0,0.1,0,0.2-0.1,0.3
				c0,0.1-0.1,0.3-0.1,0.4l-2.1,5.5c-0.2,0.5-0.4,0.9-0.5,1.1c-0.2,0.3-0.4,0.5-0.7,0.6c-0.3,0.1-0.7,0.2-1.2,0.2
				c-0.5,0-0.8,0-1.1-0.1s-0.4-0.3-0.4-0.6c0-0.2,0.1-0.3,0.2-0.4s0.3-0.1,0.5-0.1c0.1,0,0.2,0,0.3,0c0.1,0,0.2,0,0.3,0
				c0.2,0,0.3,0,0.4-0.1s0.2-0.1,0.3-0.3C236,484,236.1,483.8,236.2,483.5z"/>
		</g>
		<g>
			<path class="st46" d="M259.7,476.8h0.4v-0.5c0-0.5,0.1-0.9,0.2-1.2s0.4-0.5,0.6-0.6c0.3-0.1,0.7-0.2,1.3-0.2c1,0,1.4,0.2,1.4,0.7
				c0,0.1,0,0.3-0.1,0.4c-0.1,0.1-0.2,0.2-0.4,0.2c-0.1,0-0.2,0-0.3,0c-0.1,0-0.3,0-0.4,0c-0.3,0-0.5,0.1-0.6,0.3
				c-0.1,0.2-0.1,0.4-0.1,0.7v0.4h0.4c0.6,0,0.9,0.2,0.9,0.6c0,0.3-0.1,0.4-0.2,0.5c-0.2,0.1-0.4,0.1-0.7,0.1h-0.4v4.3
				c0,0.3-0.1,0.6-0.2,0.7c-0.1,0.2-0.4,0.2-0.6,0.2c-0.2,0-0.4-0.1-0.6-0.2s-0.2-0.4-0.2-0.7V478h-0.5c-0.2,0-0.4,0-0.6-0.2
				c-0.1-0.1-0.2-0.2-0.2-0.4C258.9,477,259.1,476.8,259.7,476.8"/>
			<path class="st46" d="M265,480.9v1.4c0,0.3-0.1,0.6-0.2,0.7c-0.1,0.2-0.4,0.2-0.6,0.2s-0.4-0.1-0.6-0.2c-0.1-0.2-0.2-0.4-0.2-0.7
				v-4.5c0-0.7,0.3-1.1,0.8-1.1c0.3,0,0.5,0.1,0.6,0.3c0.1,0.2,0.2,0.4,0.2,0.8c0.2-0.3,0.4-0.6,0.6-0.8c0.2-0.2,0.5-0.3,0.8-0.3
				s0.7,0.1,1,0.3c0.3,0.2,0.5,0.4,0.5,0.7c0,0.2-0.1,0.4-0.2,0.5c-0.1,0.1-0.3,0.2-0.4,0.2c-0.1,0-0.2,0-0.4-0.1
				c-0.2-0.1-0.4-0.1-0.6-0.1c-0.2,0-0.4,0.1-0.6,0.2s-0.3,0.3-0.4,0.5c-0.1,0.2-0.1,0.5-0.2,0.9C265,480,265,480.5,265,480.9"/>
			<path class="st46" d="M272.4,480.4h-3.2c0,0.4,0.1,0.7,0.2,1c0.1,0.3,0.3,0.5,0.6,0.6c0.2,0.1,0.5,0.2,0.8,0.2
				c0.2,0,0.4,0,0.5-0.1c0.2,0,0.3-0.1,0.5-0.2c0.1-0.1,0.3-0.2,0.4-0.3s0.3-0.3,0.5-0.5c0.1-0.1,0.2-0.1,0.4-0.1
				c0.2,0,0.3,0,0.4,0.1c0.1,0.1,0.1,0.2,0.1,0.4c0,0.1-0.1,0.3-0.2,0.5c-0.1,0.2-0.3,0.4-0.5,0.6c-0.2,0.2-0.5,0.3-0.9,0.5
				c-0.4,0.1-0.8,0.2-1.2,0.2c-1,0-1.9-0.3-2.4-0.9c-0.6-0.6-0.9-1.4-0.9-2.4c0-0.5,0.1-0.9,0.2-1.3c0.1-0.4,0.4-0.8,0.6-1
				c0.3-0.3,0.6-0.5,1-0.7c0.4-0.2,0.8-0.2,1.3-0.2c0.6,0,1.2,0.1,1.6,0.4c0.5,0.3,0.8,0.6,1,1c0.2,0.4,0.3,0.9,0.3,1.3
				c0,0.4-0.1,0.7-0.4,0.8C273.2,480.3,272.9,480.4,272.4,480.4 M269.3,479.5h2.9c0-0.5-0.2-1-0.5-1.2c-0.3-0.3-0.6-0.4-1-0.4
				c-0.4,0-0.7,0.1-1,0.4C269.5,478.5,269.3,478.9,269.3,479.5"/>
			<path class="st46" d="M279.2,480.4H276c0,0.4,0.1,0.7,0.2,1s0.3,0.5,0.6,0.6c0.2,0.1,0.5,0.2,0.8,0.2c0.2,0,0.4,0,0.5-0.1
				c0.2,0,0.3-0.1,0.5-0.2c0.1-0.1,0.3-0.2,0.4-0.3c0.1-0.1,0.3-0.3,0.5-0.5c0.1-0.1,0.2-0.1,0.4-0.1c0.2,0,0.3,0,0.4,0.1
				c0.1,0.1,0.1,0.2,0.1,0.4c0,0.1,0,0.3-0.2,0.5c-0.1,0.2-0.3,0.4-0.5,0.6c-0.2,0.2-0.5,0.3-0.9,0.5c-0.4,0.1-0.8,0.2-1.2,0.2
				c-1,0-1.9-0.3-2.4-0.9c-0.6-0.6-0.9-1.4-0.9-2.4c0-0.5,0.1-0.9,0.2-1.3c0.1-0.4,0.4-0.8,0.6-1c0.3-0.3,0.6-0.5,1-0.7
				c0.4-0.2,0.8-0.2,1.3-0.2c0.6,0,1.2,0.1,1.6,0.4c0.5,0.3,0.8,0.6,1,1c0.2,0.4,0.3,0.9,0.3,1.3c0,0.4-0.1,0.7-0.4,0.8
				C279.9,480.3,279.6,480.4,279.2,480.4 M276,479.5h2.9c0-0.5-0.2-1-0.5-1.2c-0.3-0.3-0.6-0.4-1-0.4c-0.4,0-0.7,0.1-1,0.4
				C276.2,478.5,276.1,478.9,276,479.5"/>
			<path class="st46" d="M282.7,477.6v0.2c0.3-0.4,0.6-0.6,1-0.8c0.3-0.2,0.7-0.3,1.1-0.3c0.5,0,1,0.1,1.4,0.4s0.8,0.6,1,1.1
				s0.4,1.1,0.4,1.8c0,0.5-0.1,1-0.2,1.4c-0.1,0.4-0.3,0.8-0.6,1c-0.2,0.3-0.5,0.5-0.9,0.6s-0.7,0.2-1.1,0.2c-0.5,0-0.9-0.1-1.2-0.3
				c-0.3-0.2-0.6-0.5-0.9-0.8v2.4c0,0.7-0.3,1.1-0.8,1.1c-0.3,0-0.5-0.1-0.6-0.3c-0.1-0.2-0.1-0.5-0.1-0.8v-7c0-0.3,0.1-0.5,0.2-0.7
				s0.3-0.2,0.5-0.2c0.2,0,0.4,0.1,0.6,0.2C282.7,477.1,282.7,477.3,282.7,477.6 M285.9,480c0-0.4-0.1-0.8-0.2-1.1
				c-0.1-0.3-0.3-0.5-0.5-0.7s-0.5-0.2-0.8-0.2c-0.5,0-0.8,0.2-1.1,0.5s-0.5,0.9-0.5,1.6c0,0.6,0.1,1.1,0.5,1.5
				c0.3,0.4,0.7,0.5,1.1,0.5c0.3,0,0.5-0.1,0.8-0.2c0.2-0.2,0.4-0.4,0.5-0.7C285.8,480.8,285.9,480.4,285.9,480"/>
			<path class="st46" d="M289.2,475.9c-0.2,0-0.4-0.1-0.6-0.2c-0.2-0.1-0.2-0.3-0.2-0.6c0-0.2,0.1-0.4,0.2-0.6
				c0.2-0.1,0.4-0.2,0.6-0.2c0.2,0,0.4,0.1,0.6,0.2c0.2,0.1,0.2,0.3,0.2,0.6c0,0.2-0.1,0.4-0.2,0.6
				C289.6,475.9,289.4,475.9,289.2,475.9 M290,477.6v4.7c0,0.3-0.1,0.6-0.2,0.7c-0.2,0.2-0.4,0.2-0.6,0.2s-0.4-0.1-0.6-0.2
				s-0.2-0.4-0.2-0.7v-4.6c0-0.3,0.1-0.6,0.2-0.7c0.1-0.2,0.3-0.2,0.6-0.2s0.4,0.1,0.6,0.2C289.9,477.1,290,477.3,290,477.6"/>
			<path class="st46" d="M295.2,482.5l-1.4-2.4l-0.9,0.8v1.3c0,0.3-0.1,0.5-0.2,0.7c-0.2,0.2-0.4,0.2-0.6,0.2
				c-0.2,0-0.5-0.1-0.6-0.2c-0.1-0.2-0.2-0.4-0.2-0.7v-6.9c0-0.4,0.1-0.6,0.2-0.8c0.1-0.2,0.3-0.3,0.6-0.3c0.2,0,0.5,0.1,0.6,0.3
				c0.1,0.2,0.2,0.4,0.2,0.8v3.9l1.8-1.9c0.2-0.2,0.4-0.4,0.5-0.5s0.3-0.1,0.4-0.1c0.2,0,0.4,0.1,0.5,0.2c0.1,0.1,0.2,0.3,0.2,0.5
				c0,0.2-0.2,0.6-0.7,1l-0.9,0.8l1.7,2.6c0.1,0.2,0.2,0.3,0.3,0.4c0,0.1,0.1,0.2,0.1,0.3c0,0.3-0.1,0.5-0.2,0.6
				c-0.1,0.1-0.3,0.2-0.5,0.2c-0.2,0-0.4,0-0.5-0.2C295.5,483,295.4,482.8,295.2,482.5"/>
			<path class="st46" d="M298.7,483.3c-0.2,0-0.5-0.1-0.6-0.2s-0.3-0.4-0.3-0.7c0-0.2,0.1-0.5,0.3-0.6c0.2-0.2,0.4-0.3,0.6-0.3
				s0.5,0.1,0.6,0.3c0.2,0.2,0.3,0.4,0.3,0.6c0,0.3-0.1,0.5-0.3,0.7C299.2,483.2,299,483.3,298.7,483.3"/>
			<path class="st46" d="M306.8,481.3c0,0.2-0.1,0.4-0.2,0.6c-0.1,0.2-0.3,0.5-0.5,0.7c-0.2,0.2-0.6,0.4-0.9,0.5
				c-0.4,0.1-0.8,0.2-1.3,0.2c-1,0-1.8-0.3-2.4-0.9c-0.6-0.6-0.8-1.4-0.8-2.4c0-0.7,0.1-1.2,0.4-1.8c0.2-0.5,0.6-0.9,1.1-1.2
				c0.5-0.3,1.1-0.4,1.8-0.4c0.4,0,0.8,0.1,1.2,0.2s0.6,0.3,0.9,0.5c0.2,0.2,0.4,0.4,0.6,0.6s0.2,0.4,0.2,0.6s-0.1,0.4-0.2,0.5
				c-0.1,0.1-0.3,0.2-0.5,0.2c-0.1,0-0.2,0-0.3-0.1c-0.1-0.1-0.2-0.2-0.3-0.3c-0.2-0.3-0.4-0.5-0.6-0.7c-0.2-0.1-0.5-0.2-0.8-0.2
				c-0.5,0-0.9,0.2-1.2,0.6c-0.3,0.4-0.4,0.9-0.4,1.5c0,0.3,0,0.6,0.1,0.8c0.1,0.2,0.2,0.5,0.3,0.6c0.1,0.2,0.3,0.3,0.5,0.4
				c0.2,0.1,0.4,0.1,0.7,0.1c0.3,0,0.6-0.1,0.8-0.2c0.2-0.1,0.4-0.4,0.6-0.7c0.1-0.2,0.2-0.3,0.3-0.4c0.1-0.1,0.3-0.2,0.4-0.2
				c0.2,0,0.4,0.1,0.5,0.2C306.7,481,306.8,481.1,306.8,481.3"/>
			<path class="st46" d="M313.8,480c0,0.5-0.1,0.9-0.2,1.3c-0.1,0.4-0.4,0.8-0.7,1c-0.3,0.3-0.6,0.5-1,0.7c-0.4,0.1-0.8,0.2-1.3,0.2
				c-0.5,0-0.9-0.1-1.3-0.2c-0.4-0.2-0.7-0.4-1-0.7c-0.3-0.3-0.5-0.6-0.7-1c-0.1-0.4-0.2-0.9-0.2-1.3c0-0.5,0.1-0.9,0.2-1.4
				c0.1-0.4,0.4-0.8,0.6-1c0.3-0.3,0.6-0.5,1-0.7s0.8-0.2,1.3-0.2s0.9,0.1,1.3,0.2s0.7,0.4,1,0.7c0.3,0.3,0.5,0.6,0.6,1
				C313.7,479.1,313.8,479.5,313.8,480 M312.1,480c0-0.7-0.1-1.2-0.4-1.5c-0.3-0.4-0.7-0.5-1.2-0.5c-0.3,0-0.6,0.1-0.8,0.2
				c-0.2,0.2-0.4,0.4-0.6,0.7s-0.2,0.7-0.2,1.1c0,0.4,0.1,0.8,0.2,1.1c0.1,0.3,0.3,0.6,0.5,0.7s0.5,0.2,0.9,0.2
				c0.5,0,0.9-0.2,1.2-0.6C312,481.1,312.1,480.6,312.1,480"/>
			<path class="st46" d="M320,480.1v2.1c0,0.3-0.1,0.6-0.2,0.8c-0.2,0.2-0.4,0.3-0.6,0.3s-0.5-0.1-0.6-0.3c-0.1-0.2-0.2-0.4-0.2-0.8
				v-2.6c0-0.4,0-0.7,0-1s-0.1-0.4-0.2-0.5c-0.1-0.1-0.3-0.2-0.6-0.2c-0.5,0-0.9,0.2-1,0.5c-0.2,0.4-0.2,0.9-0.2,1.6v2.2
				c0,0.3-0.1,0.6-0.2,0.8c-0.2,0.2-0.4,0.3-0.6,0.3s-0.5-0.1-0.6-0.3c-0.2-0.2-0.2-0.4-0.2-0.8v-4.6c0-0.3,0.1-0.5,0.2-0.7
				c0.1-0.2,0.3-0.2,0.6-0.2c0.2,0,0.4,0.1,0.6,0.2c0.1,0.1,0.2,0.4,0.2,0.6v0.1c0.3-0.3,0.6-0.6,0.9-0.7s0.7-0.2,1.1-0.2
				c0.4,0,0.8,0.1,1,0.2c0.3,0.2,0.5,0.4,0.7,0.7c0.3-0.3,0.6-0.6,0.9-0.7s0.7-0.2,1-0.2c0.4,0,0.8,0.1,1.1,0.3s0.6,0.4,0.7,0.8
				c0.1,0.3,0.2,0.8,0.2,1.4v3.2c0,0.3-0.1,0.6-0.2,0.8c-0.1,0.2-0.4,0.3-0.6,0.3s-0.5-0.1-0.6-0.3c-0.2-0.2-0.2-0.4-0.2-0.8v-2.7
				c0-0.4,0-0.6,0-0.8s-0.1-0.4-0.2-0.5c-0.1-0.1-0.3-0.2-0.6-0.2c-0.2,0-0.4,0.1-0.6,0.2c-0.2,0.1-0.3,0.3-0.5,0.5
				C320,478.9,320,479.4,320,480.1"/>
		</g>
		<g>
			<path class="st46" d="M244.5,479.6L244.5,479.6C244.5,479.6,244.5,479.6,244.5,479.6z"/>
			<path class="st46" d="M244.6,480.1L244.6,480.1c0-0.1-0.1-0.3-0.1-0.4C244.5,479.8,244.6,480,244.6,480.1z"/>
			<path class="st46" d="M245.1,481.6C245.1,481.6,245.1,481.6,245.1,481.6C245.1,481.6,245.1,481.6,245.1,481.6z"/>
			<path class="st46" d="M245.1,481.5C245.1,481.5,245.1,481.5,245.1,481.5C245.1,481.5,245.1,481.5,245.1,481.5z"/>
			<path class="st46" d="M244.8,480.7c0.1,0.2,0.2,0.5,0.3,0.7C244.9,481.2,244.8,480.9,244.8,480.7L244.8,480.7z"/>
			<path class="st46" d="M250.8,473.4c0.3,0,0.5,0,0.8,0.1l0.1-0.5c0,0-0.7-0.2-1.7-0.1l-0.1-0.3c0.3-0.1,0.5-0.3,0.5-0.6
				c0-0.4-0.3-0.7-0.7-0.7s-0.7,0.3-0.7,0.7c0,0.3,0.2,0.6,0.5,0.6l0.1,0.3c-1,0.1-1.8,0.5-1.8,0.5l0.1,0.4c0.6-0.2,1.1-0.3,1.6-0.4
				C250.1,473.4,250.5,473.4,250.8,473.4z"/>
			<path class="st46" d="M245.1,475.8L245.1,475.8C245.1,475.8,245.2,475.7,245.1,475.8l-0.1-0.2l-0.3-0.2c0,0-0.5,0.5-0.9,1.3
				c0,0,0,0-0.1-0.1c-0.1-0.1-0.3-0.2-0.5-0.2h0c-0.1,0-0.2,0-0.3-0.1c0.1-0.1,0.1-0.2,0.1-0.3c0-0.2-0.2-0.4-0.4-0.4
				s-0.4,0.2-0.4,0.4s0.2,0.4,0.4,0.4c0,0,0.1,0,0.1,0c0.1,0.1,0.3,0.2,0.5,0.2c0.1,0,0.2,0,0.3,0.1c0.1,0.1,0.1,0.2,0.1,0.3l0,0
				c-0.3,0.7-0.2,1.7-0.2,1.7l0.7,0c0-0.3,0.1-0.9,0.2-1.4C244.7,476.4,245.1,475.8,245.1,475.8z"/>
			<path class="st46" d="M256.5,473.9c-0.2,0-0.4,0.2-0.4,0.4c0,0,0,0.1,0,0.1c-0.1,0.1-0.2,0.3-0.2,0.5c0,0.1,0,0.2-0.1,0.3
				c-0.1,0-0.1,0.1-0.2,0.1c-0.5-0.7-1.1-1.1-1.1-1.1l-0.5,0.5c0.4,0.3,0.7,0.7,1.1,1.2c0.2,0.4,0.5,0.8,0.7,1.3l0.6-0.3
				c0,0-0.3-0.7-0.7-1.4c0.1,0,0.1-0.1,0.2-0.1c0.1-0.1,0.2-0.3,0.2-0.5c0-0.1,0-0.2,0.1-0.3c0.1,0,0.2,0.1,0.3,0.1
				c0.2,0,0.4-0.2,0.4-0.4C257,474.1,256.8,473.9,256.5,473.9z"/>
			<path class="st46" d="M254.9,479.7c-0.9,0.4-2.3,1-4.2,1.3c-0.8,0.1-1.5,0.1-2.1,0.1c-0.9,0-1.6-0.1-2.2-0.1
				c-0.7-0.1-1.2-0.2-1.5-0.3c0.1,0.2,0.2,0.5,0.3,0.7c0,0,0,0,0,0c0,0,0,0.1,0,0.1c0,0,0,0,0,0.1c0,0,0,0,0,0
				c0.2,0.4,0.4,0.7,0.7,1c0.9,1,1.8,1.1,1.8,1.1h0h0c0,0,0.8,0.3,2.1,0.3c1.2,0,2.4-0.2,3.6-0.7c0.8-0.4,1.6-1.1,2-1.7
				c0.3-0.5,0.5-0.9,0.7-1.4c0.1-0.3,0.1-0.7,0.1-1.1C255.8,479.2,255.4,479.4,254.9,479.7z"/>
			<path class="st46" d="M245.4,476c0,0-0.4,0.6-0.7,1.4c-0.2,0.6-0.2,1.5-0.2,1.5l0,0c0,0.2,0,0.4,0,0.6v0c0,0,0,0,0,0.1
				c0,0.1,0,0.3,0.1,0.4c0.4,0.1,3.1,0.7,6,0.3c1.8-0.2,3.2-0.8,4.1-1.2c0.7-0.3,1.1-0.6,1.3-0.8c-0.2-0.6-0.6-1.6-1.1-2.3
				c-1.2-1.8-2.6-2.2-3.3-2.4c-0.3,0-0.5-0.1-0.8-0.1c-0.3,0-0.6,0-1.1,0.1c-0.5,0-1,0.2-1.6,0.4c-0.8,0.3-1.6,0.7-2.2,1.3l0,0
				C245.8,475.6,245.6,475.7,245.4,476z M253.1,475.6c0.6,0,1.1,0.5,1.1,1.1s-0.5,1.1-1.1,1.1c-0.6,0-1.1-0.5-1.1-1.1
				C252,476.1,252.5,475.6,253.1,475.6z M247.9,475.5c1,0,1.8,0.8,1.8,1.8s-0.8,1.8-1.8,1.8s-1.8-0.8-1.8-1.8
				C246.2,476.3,246.9,475.5,247.9,475.5z"/>
		</g>
	</g>
</g>
</svg>
